<svg version="1.2" xmlns="http://www.w3.org/2000/svg" viewBox="0 0 1024 128" width="1024"
    height="128">
    <style>
        .blue-fill{fill:#0035bb}
        .white-fill{fill:#ffffff}
        .blue-stroke{fill:none;stroke:#0035bb;stroke-linejoin:round;stroke-width:4}
        .white-stroke{fill:none;stroke:#ffffff;stroke-linejoin:round;stroke-width:8}
    </style>
    <!-- White filled rectangle with text subtracted -->
    <!-- USE -->
    <path fill-rule="evenodd" class="white-fill"
        d="m30 10h210c6.6 0 12 5.4 12 12v84c0 6.6-5.4 12-12 12h-210c-6.6 0-12-5.4-12-12v-84c0-6.6 5.4-12 12-12z m38.3 90.4q-9.9 0-17.2-3.8-7.2-4-11.1-11.3-4-7.2-4-17v-40.3h17.4v40.3q0 4.8 1.9 8.5 1.8 3.5 5.1 5.5 3.5 1.9 8 1.9 4.5 0 7.8-1.9 3.3-2 5.1-5.5 1.9-3.7 1.9-8.5v-40.3h17.4v40.3q0 9.7-4 16.9-4 7.3-11.3 11.3-7.2 3.9-17 3.9z m69.2 0q-8.6 0-17-3.1-8.4-3.2-15-8.8l9.7-12.7q6.5 5.3 12 7.6 5.5 2.3 11.7 2.3 4 0 6.8-0.9 2.9-0.8 4.4-2.3 1.5-1.6 1.5-3.8 0-2.9-2.2-4.6-2.2-1.6-7.6-2.5l-15.6-2.8q-8.6-1.5-13.3-6.6-4.7-5.1-4.7-13 0-6.9 3.5-11.9 3.5-5 10-7.6 6.6-2.7 15.6-2.7 7.9 0 16 2.8 8 2.6 13.9 7.4l-9.3 13q-10.9-8.5-21.8-8.5-3.5 0-6.2 0.8-2.5 0.7-3.9 2.1-1.3 1.4-1.3 3.3 0 2.7 1.9 4.1 2 1.4 6.5 2.2l14.7 2.5q10.2 1.6 15.5 6.8 5.4 5.2 5.4 13.5 0 7.2-3.8 12.5-3.7 5.2-10.7 8.1-7 2.8-16.7 2.8z m95.6-1h-56.4v-71.4h56v15.2h-38.6v12.9h25.5v14.7h-25.5v13.4h39z" />
    <path fill-rule="evenodd" class="blue-stroke"
        d="m30 10h210c6.6 0 12 5.4 12 12v84c0 6.6-5.4 12-12 12h-210c-6.6 0-12-5.4-12-12v-84c0-6.6 5.4-12 12-12z" />
    <path class="blue-stroke"
        d="m68.3 100.4q-9.9 0-17.2-3.8-7.2-4-11.1-11.3-4-7.2-4-17v-40.3h17.4v40.3q0 4.8 1.9 8.5 1.8 3.5 5.1 5.5 3.5 1.9 8 1.9q4.5 0 7.8-1.9 3.3-2 5.1-5.5 1.9-3.7 1.9-8.5v-40.3h17.4v40.3q0 9.7-4 16.9-4 7.3-11.3 11.3-7.2 3.9-17 3.9zm69.2 0q-8.6 0-17-3.1-8.4-3.2-15-8.8l9.7-12.7q6.5 5.3 12 7.6 5.5 2.3 11.7 2.3q4 0 6.8-0.9 2.9-0.8 4.4-2.3 1.5-1.6 1.5-3.8 0-2.9-2.2-4.6-2.2-1.6-7.6-2.5l-15.6-2.8q-8.6-1.5-13.3-6.6-4.7-5.1-4.7-13 0-6.9 3.5-11.9 3.5-5 10-7.6 6.6-2.7 15.6-2.7 7.9 0 16 2.8 8 2.6 13.9 7.4l-9.3 13q-10.9-8.5-21.8-8.5-3.5 0-6.2 0.8-2.5 0.7-3.9 2.1-1.3 1.4-1.3 3.3 0 2.7 1.9 4.1 2 1.4 6.5 2.2l14.7 2.5q10.2 1.6 15.5 6.8 5.4 5.2 5.4 13.5 0 7.2-3.8 12.5-3.7 5.2-10.7 8.1-7 2.8-16.7 2.8zm95.6-1h-56.4v-71.4h56v15.2h-38.6v12.9h25.5v14.7h-25.5v13.4h39z" />

    <!-- CASCADE -->
    <path fill-rule="evenodd" class="white-stroke"
        d="m328.4 117.5q-12 0-22.4-4-10.2-4.3-17.9-11.6-7.6-7.4-12-17.1-4.2-9.9-4.1-21.3-0.1-11.5 4.1-21.3 4.4-9.9 12-17.2 7.9-7.4 18-11.5 10.4-4.1 22.3-4.1 8.7 0 17.1 2.5 8.4 2.6 15.4 7.2 7.2 4.5 12 10.8l-17.4 17.1q-5.5-7-12.4-10.5-6.8-3.5-14.7-3.5-6.4 0-11.9 2.5-5.4 2.2-9.4 6.2-4.1 4.1-6.3 9.7-2.3 5.5-2.3 12.1 0 6.4 2.3 12 2.3 5.4 6.4 9.6 4.2 4.1 9.8 6.3 5.6 2.3 12.3 2.3 7.6 0 14.1-3.4 6.5-3.3 11.8-9.7l16.9 16.6q-4.7 6.2-11.8 10.8-7 4.5-15.3 7.1-8.2 2.4-16.6 2.4zm71.8-1.5h-26.8l43-105h29.6l42.4 105h-27.9l-9.6-25.3h-40.9zm30.4-79.5l-12.9 33.5h25.5zm106.4 81q-12.8 0-25.3-4.6-12.4-4.6-22.1-12.9l14.4-18.8q9.5 7.9 17.6 11.3 8.1 3.3 17.3 3.3 6 0 10.2-1.2 4.2-1.2 6.4-3.5 2.3-2.3 2.3-5.5 0-4.3-3.3-6.7-3.3-2.4-11.3-3.8l-23.1-4.1q-12.7-2.2-19.6-9.7-6.9-7.5-6.9-19.1 0-10.2 5.1-17.5 5.3-7.4 14.8-11.2 9.8-4 23.2-4 11.7 0 23.5 4.1 11.8 3.9 20.5 10.9l-13.6 19.1q-16.2-12.4-32.2-12.4-5.3 0-9.2 1.1-3.7 1.1-5.8 3.2-2 2-2 4.8 0 3.9 2.8 6 3 2.1 9.7 3.3l21.7 3.6q15.1 2.4 22.9 10.1 8 7.6 8 19.7 0 10.7-5.5 18.5-5.6 7.6-16 11.8-10.3 4.2-24.5 4.2zm110.5 0q-12 0.1-22.4-4-10.1-4.2-17.8-11.5-7.7-7.4-12-17.2-4.2-9.8-4.2-21.3 0-11.5 4.2-21.3 4.3-9.9 12-17.2 7.8-7.3 18-11.4 10.3-4.2 22.2-4.2 8.7 0 17.1 2.6 8.4 2.5 15.4 7.2 7.2 4.5 12 10.8l-17.4 17q-5.5-7-12.4-10.5-6.7-3.4-14.7-3.4-6.3 0-11.9 2.4-5.4 2.3-9.4 6.3-4 4-6.3 9.6-2.2 5.6-2.3 12.1 0.1 6.5 2.3 12 2.4 5.5 6.4 9.6 4.3 4.1 9.8 6.4 5.7 2.2 12.3 2.2 7.6 0 14.1-3.3 6.6-3.3 11.8-9.8l17 16.7q-4.8 6.2-11.8 10.8-7.1 4.5-15.4 7-8.2 2.4-16.6 2.4zm71.8-1.5h-26.8l43-105h29.6l42.4 105h-27.9l-9.6-25.3h-40.9zm30.4-79.5l-12.9 33.6h25.5zm108 79.5h-42.5v-105h42.5q11.8 0 21.8 4 10 4.1 17.6 11.3 7.6 7.2 11.8 16.8 4.3 9.6 4.3 20.7 0 10.9-4.3 20.4-4.2 9.5-11.8 16.6-7.6 7.1-17.6 11.2-10 4-21.8 4zm-16.7-82.2v59.4h16.2q6.1 0 11.4-2.2 5.4-2.3 9.4-6.3 4-4.1 6.3-9.4 2.2-5.3 2.3-11.5-0.1-6.3-2.3-11.7-2.3-5.6-6.3-9.6-4-4-9.4-6.3-5.3-2.4-11.4-2.4zm169.3 82.2h-83.4v-105h82.8v22.4h-57v18.9h37.7v21.5h-37.7v19.9h57.6z" />
    <path fill-rule="evenodd" class="blue-fill"
        d="m328.4 117.5q-12 0-22.4-4-10.2-4.3-17.9-11.6-7.6-7.4-12-17.1-4.2-9.9-4.1-21.3-0.1-11.5 4.1-21.3 4.4-9.9 12-17.2 7.9-7.4 18-11.5 10.4-4.1 22.3-4.1 8.7 0 17.1 2.5 8.4 2.6 15.4 7.2 7.2 4.5 12 10.8l-17.4 17.1q-5.5-7-12.4-10.5-6.8-3.5-14.7-3.5-6.4 0-11.9 2.5-5.4 2.2-9.4 6.2-4.1 4.1-6.3 9.7-2.3 5.5-2.3 12.1 0 6.4 2.3 12 2.3 5.4 6.4 9.6 4.2 4.1 9.8 6.3 5.6 2.3 12.3 2.3q7.6 0 14.1-3.4 6.5-3.3 11.8-9.7l16.9 16.6q-4.7 6.2-11.8 10.8-7 4.5-15.3 7.1-8.2 2.4-16.6 2.4zm71.8-1.5h-26.8l43-105h29.6l42.4 105h-27.9l-9.6-25.3h-40.9zm30.4-79.5l-12.9 33.5h25.5zm106.4 81q-12.8 0-25.3-4.6-12.4-4.6-22.1-12.9l14.4-18.8q9.5 7.9 17.6 11.3 8.1 3.3 17.3 3.3 6 0 10.2-1.2 4.2-1.2 6.4-3.5 2.3-2.3 2.3-5.5 0-4.3-3.3-6.7-3.3-2.4-11.3-3.8l-23.1-4.1q-12.7-2.2-19.6-9.7-6.9-7.5-6.9-19.1 0-10.2 5.1-17.5 5.3-7.4 14.8-11.2 9.8-4 23.2-4 11.7 0 23.5 4.1 11.8 3.9 20.5 10.9l-13.6 19.1q-16.2-12.4-32.2-12.4-5.3 0-9.2 1.1-3.7 1.1-5.8 3.2-2 2-2 4.8 0 3.9 2.8 6 3 2.1 9.7 3.3l21.7 3.6q15.1 2.4 22.9 10.1 8 7.6 8 19.7 0 10.7-5.5 18.5-5.6 7.6-16 11.8-10.3 4.2-24.5 4.2zm110.5 0q-12 0.1-22.4-4-10.1-4.2-17.8-11.5-7.7-7.4-12-17.2-4.2-9.8-4.2-21.3 0-11.5 4.2-21.3 4.3-9.9 12-17.2 7.8-7.3 18-11.4 10.3-4.2 22.2-4.2 8.7 0 17.1 2.6 8.4 2.5 15.4 7.2 7.2 4.5 12 10.8l-17.4 17q-5.5-7-12.4-10.5-6.7-3.4-14.7-3.4-6.3 0-11.9 2.4-5.4 2.3-9.4 6.3-4 4-6.3 9.6-2.2 5.6-2.3 12.1 0.1 6.5 2.3 12 2.4 5.5 6.4 9.6 4.3 4.1 9.8 6.4 5.7 2.2 12.3 2.2q7.6 0 14.1-3.3 6.6-3.3 11.8-9.8l17 16.7q-4.8 6.2-11.8 10.8-7.1 4.5-15.4 7-8.2 2.4-16.6 2.4zm71.8-1.5h-26.8l43-105h29.6l42.4 105h-27.9l-9.6-25.3h-40.9zm30.4-79.5l-12.9 33.6h25.5zm108 79.5h-42.5v-105h42.5q11.8 0 21.8 4 10 4.1 17.6 11.3 7.6 7.2 11.8 16.8 4.3 9.6 4.3 20.7 0 10.9-4.3 20.4-4.2 9.5-11.8 16.6-7.6 7.1-17.6 11.2-10 4-21.8 4zm-16.7-82.2v59.4h16.2q6.1 0 11.4-2.2 5.4-2.3 9.4-6.3 4-4.1 6.3-9.4 2.2-5.3 2.3-11.5-0.1-6.3-2.3-11.7-2.3-5.6-6.3-9.6-4-4-9.4-6.3-5.3-2.4-11.4-2.4zm169.3 82.2h-83.4v-105h82.8v22.4h-57v18.9h37.7v21.5h-37.7v19.9h57.6z" />
</svg>